<svg xmlns="http://www.w3.org/2000/svg" width="1024" height="1024" viewBox="0 0 1024 1024">
  <defs>
    <pattern id="halA" width="26" height="26" patternUnits="userSpaceOnUse">
      <circle cx="4" cy="4" r="3.4" fill="rgba(229,0,0,0.5)"></circle>
    </pattern>
    <clipPath id="sqA"><rect width="1024" height="1024"></rect></clipPath>
  </defs>
  <g clip-path="url(#sqA)">
    <rect width="1024" height="1024" fill="#0A0A0A"></rect>
    <rect x="620" y="-40" width="520" height="1120" fill="url(#halA)" transform="skewX(-12)"></rect>
    
    <polygon points="-60,240 1140,120 1140,430 -60,560" fill="#E50000"></polygon>
    <polygon points="-60,560 1140,430 1140,505 -60,635" fill="#B00000"></polygon>
    
    <path d="M250,320 L392,320 L536,624 L680,320 L822,320 L536,812 Z" fill="#000000" transform="translate(26,30) skewX(-8)"></path>
    
    <path d="M250,320 L392,320 L536,624 L680,320 L822,320 L536,812 Z" fill="#F2F2F2" transform="skewX(-8)"></path>
    
    <path d="M812,742 l24,58 l62,5 l-47,41 l15,61 l-54,-33 l-54,33 l15,-61 l-47,-41 l62,-5 Z" fill="#FFD700"></path>
  </g>
</svg>